<?xml version="1.0" encoding="UTF-8"?><svg id="Layer_2" xmlns="http://www.w3.org/2000/svg" viewBox="0 0 96 96"><defs><style>.cls-1{fill:#000;stroke-width:0px;}</style></defs><g id="Layer_1-2"><path class="cls-1" d="M81.94,81.94c18.75-18.74,18.75-49.14,0-67.88-18.74-18.75-49.14-18.75-67.88,0-18.75,18.74-18.75,49.14,0,67.88,0,0,0,0,0,0,18.74,18.74,49.14,18.74,67.88,0ZM27.32,63c-.78-.78-.78-2.05,0-2.83,0,0,0,0,0,0l20.17-20.17h-17.49c-1.1,0-2-.9-2-2v-8c0-1.1.9-2,2-2h36c1.1,0,2,.9,2,2v36c0,1.1-.9,2-2,2h-8c-1.1,0-2-.9-2-2v-17.49l-20.19,20.17c-.78.78-2.05.78-2.83,0,0,0,0,0,0,0l-5.66-5.68Z"/></g></svg>